# xmcd
#
# Track frame offsets: 
#        150
#        23016
#        37507
#        54598
#        73650
#        99055
#        115029
#        133922
#        150950
#        157167
#        174534
#        193161
#        209950
#        230726
#        243879
#        260119
#        276193
#        298086
#        313884
#
# Disc length: 4405 seconds
#
# Revision: 0
# Processed by: cddbd v1.5PL3 Copyright (c) Steve Scherf et al.
# Submitted via: ExactAudioCopy v0.95a4
#
DISCID=18113313
DTITLE=Aimee Mann - Bachelor No 2 Local Release
DYEAR=1999
DGENRE=Rock
TTITLE0=how i am different
TTITLE1=nothing is good enough
TTITLE2=red vines
TTITLE3=the fall of the world's own optimist
TTITLE4=deathly
TTITLE5=ghost world
TTITLE6=calling it quits
TTITLE7=driving sideways
TTITLE8=just like anyone
TTITLE9=susan
TTITLE10=it takes all kinds
TTITLE11=you do
TTITLE12=save me
TTITLE13=one is the lonelyest number
TTITLE14=make a killing
TTITLE15=my routine
TTITLE16=amature
TTITLE17=not going to stop
TTITLE18=you do
EXTD=
EXTT0=
EXTT1=
EXTT2=
EXTT3=
EXTT4=
EXTT5=
EXTT6=
EXTT7=
EXTT8=
EXTT9=
EXTT10=
EXTT11=
EXTT12=
EXTT13=
EXTT14=
EXTT15=
EXTT16=
EXTT17=
EXTT18=
PLAYORDER=
